PathFileType	4	(X/Y/Z)	Run_300 02
DataRate	CameraRate	NumFrames	NumMarkers	Units	OrigDataRate	OrigDataStartFrame	OrigNumFrames
100	100	5	42	mm	100	301	128
Frame#	Time	RASI			LPSI			RPSI			RTH1			RTH2			RTH3			LTH1			LTH2			LTH3			RTB1			RTB2			RTB3			LTB1			LTB2			LTB3			RCAL			RTOE			RMT5			LCAL			LTOE			LMT5			LACR			RACR			CLAV			C7			RUA1			RUA2			RUA3			RLEL			RMEL			LUA1			LUA2			LUA3			LLEL			LMEL			RFAsuperior			RFAradius			RFAulna			LFAsuperior			LFAradius			LFAulna			LASI		
		X1	Y1	Z1	X2	Y2	Z2	X3	Y3	Z3	X4	Y4	Z4	X5	Y5	Z5	X6	Y6	Z6	X7	Y7	Z7	X8	Y8	Z8	X9	Y9	Z9	X10	Y10	Z10	X11	Y11	Z11	X12	Y12	Z12	X13	Y13	Z13	X14	Y14	Z14	X15	Y15	Z15	X16	Y16	Z16	X17	Y17	Z17	X18	Y18	Z18	X19	Y19	Z19	X20	Y20	Z20	X21	Y21	Z21	X22	Y22	Z22	X23	Y23	Z23	X24	Y24	Z24	X25	Y25	Z25	X26	Y26	Z26	X27	Y27	Z27	X28	Y28	Z28	X29	Y29	Z29	X30	Y30	Z30	X31	Y31	Z31	X32	Y32	Z32	X33	Y33	Z33	X34	Y34	Z34	X35	Y35	Z35	X36	Y36	Z36	X37	Y37	Z37	X38	Y38	Z38	X39	Y39	Z39	X40	Y40	Z40	X41	Y41	Z41	X42	Y42	Z42	

301	  3.010000	1003.082487	1083.449951	-207.849109	829.763154	1141.552826	-385.029064	839.663749	1137.832105	-273.144219	914.680193	962.068363	-159.302842	826.172342	831.469009	-178.069272	822.320726	675.318921	-193.480065	948.942542	958.488909	-512.967309	928.381767	793.657630	-458.489340	1018.343742	681.577051	-456.658122	708.996347	439.944046	-259.678137	624.756650	473.688351	-189.615619	541.714383	346.737153	-265.431204	1140.279498	485.677192	-390.324020	1071.927957	359.833478	-422.381322	1155.762745	270.961694	-362.776757	386.629705	380.604720	-246.691040	448.322482	157.525233	-319.680793	407.232897	170.236513	-221.947205	1069.784427	108.288039	-314.686868	1297.211336	172.497492	-319.296138	1268.520208	 90.652758	-390.619419	925.116578	1580.893959	-483.736057	1012.306941	1552.954370	-180.423056	1033.176173	1522.631365	-317.610551	908.871262	1587.626376	-319.803073	937.037337	1454.050861	-87.856190	991.050927	1398.001186	-76.874446	948.965246	1319.686605	-15.154911	935.887928	1254.082990	 14.597872	903.854616	1229.103585	-66.891323	797.358715	1530.923928	-500.360982	787.377554	1455.499029	-540.139090	692.247975	1427.152057	-534.933379	647.183892	1370.006230	-545.763136	655.505427	1345.381410	-459.292404	1029.207139	1235.609805	-38.903330	1119.509118	1268.079413	-189.726815	1142.869683	1212.382788	-153.662860	693.600930	1302.102127	-562.440693	874.137240	1249.496270	-530.982404	838.896029	1192.753218	-558.022053	984.825819	1088.322321	-456.667238	
302	  3.020000	1003.695623	1078.210185	-208.515891	829.908673	1136.717235	-384.974954	839.840383	1132.738996	-272.953121	917.449363	956.718206	-160.199431	832.318692	823.929658	-177.686982	832.708552	667.733783	-192.723544	948.487556	953.408708	-512.766559	926.958831	788.767082	-457.922565	1016.533213	675.947975	-454.909105	716.132573	436.901972	-258.153082	634.216080	476.541408	-188.199740	543.148102	354.586155	-262.363360	1136.624260	479.929582	-386.197137	1069.106774	353.928753	-419.797952	1151.514846	265.091362	-358.563421	389.149498	397.435894	-242.655805	441.099778	171.605730	-314.751910	401.196645	186.558944	-216.706472	1064.742202	101.457817	-310.867291	1292.252831	167.279946	-317.099130	1262.945759	 86.020199	-388.962520	925.956230	1575.762417	-484.963851	1012.659747	1548.457640	-181.035459	1033.653228	1518.168644	-318.210235	909.256115	1583.366522	-321.107130	935.476811	1451.073399	-88.646729	988.549966	1394.298979	-77.141738	944.622375	1316.573567	-15.804376	929.895481	1251.392640	 14.422708	898.559310	1226.852683	-67.422066	798.079345	1525.203475	-502.020427	788.807695	1449.119169	-540.956302	693.966498	1419.846986	-535.684876	649.508479	1362.149447	-546.161726	658.102098	1337.793667	-459.672586	1023.563206	1228.051511	-37.048938	1118.357924	1254.708517	-187.129063	1138.082634	1198.955427	-149.274958	696.551268	1294.935107	-562.598098	877.614475	1243.837885	-531.151570	842.890176	1187.101367	-558.786133	985.007671	1084.631227	-455.896963	
303	  3.030000	1004.345491	1071.955938	-209.164234	830.114810	1130.822236	-384.859461	840.046081	1126.741518	-272.694599	920.190587	950.498999	-160.704996	838.346910	815.647625	-176.490552	843.213557	659.542201	-191.246609	947.195947	947.110893	-513.296727	925.738507	782.841511	-457.124381	1015.501408	669.958157	-453.045150	724.899775	433.557834	-256.219553	645.545831	478.504804	-186.570834	546.951446	361.706908	-258.776208	1132.394523	472.566500	-382.854233	1064.224001	347.312324	-418.141684	1144.334935	257.434897	-355.746675	394.988829	413.340415	-239.253969	436.906172	184.745832	-309.040293	397.877251	202.452932	-211.271181	1054.835559	 95.279494	-308.381515	1283.289692	157.932420	-315.349015	1252.204564	 77.032957	-387.486468	926.809843	1569.407341	-486.340362	1012.787290	1542.712548	-181.563507	1034.053458	1512.646465	-318.748534	909.530295	1578.147594	-322.425930	933.242259	1446.817048	-89.488743	985.342785	1389.429553	-77.144949	939.560291	1312.367283	-16.311887	923.059626	1247.829384	 14.375336	892.534829	1223.526299	-67.740808	798.852105	1517.886198	-504.189517	790.544293	1441.161614	-542.257620	696.027759	1410.804202	-537.057122	652.307064	1352.527724	-547.393826	660.983052	1328.470352	-460.827943	1016.855246	1219.450935	-34.742807	1116.381592	1239.220186	-183.446755	1132.207711	1183.754777	-143.768697	700.095197	1285.978188	-563.366774	881.663391	1236.668507	-531.434559	847.601848	1179.847956	-559.659753	985.105028	1078.690466	-455.206799	
304	  3.040000	1004.911418	1064.781151	-209.996519	830.373164	1123.758485	-384.662016	840.258147	1119.861832	-272.411100	922.943308	943.703536	-160.688259	844.109882	806.793324	-174.771017	853.852030	650.850743	-188.999493	945.475794	939.760931	-513.836249	924.440470	775.826779	-455.930449	1014.280523	663.076696	-451.501159	735.191530	429.653864	-253.399923	658.374464	479.563346	-184.500122	553.174680	367.808107	-254.817107	1127.372135	463.233803	-381.289594	1056.635166	339.555391	-417.091929	1134.428381	247.863805	-354.579189	403.724648	427.741279	-236.596246	435.885588	196.519907	-302.698644	397.421235	217.427909	-205.663813	1040.519826	 91.442007	-306.493390	1270.692576	142.942164	-313.800599	1235.900681	 63.687425	-386.264070	927.640358	1561.894951	-487.831271	1012.563259	1535.825207	-182.033772	1034.360141	1506.126073	-319.319202	909.697006	1572.008403	-323.783557	930.254188	1441.418981	-90.413614	981.384208	1383.457370	-76.895144	933.865470	1307.116421	-16.700196	915.541392	1243.513938	 14.441330	885.783625	1219.147603	-67.688205	799.703081	1509.083962	-506.907630	792.634122	1431.685906	-544.002517	698.496984	1400.056500	-539.063940	655.581469	1341.210410	-549.437442	664.207731	1317.519020	-462.705312	1009.212380	1210.095837	-32.062371	1113.316535	1221.952254	-178.793953	1125.258563	1167.081927	-137.316752	704.250570	1275.279276	-564.857143	886.266922	1228.033923	-531.843711	852.998768	1171.013145	-560.613205	985.282796	1070.703480	-454.460631	
305	  3.050000	1005.297293	1056.979173	-210.908042	830.606415	1115.631333	-384.420454	840.395432	1112.121256	-272.097850	925.545960	936.369644	-160.499330	849.619339	797.366915	-173.157841	864.689069	641.739557	-186.160050	943.993944	931.551527	-513.422887	922.820310	767.878061	-454.533744	1012.574083	655.228467	-450.802474	746.899680	424.912964	-249.323546	672.370324	479.809896	-181.948897	561.882016	372.710131	-250.742112	1122.091542	452.403797	-381.374752	1046.963541	330.881571	-415.717036	1122.343212	237.033043	-353.481832	414.768768	440.266300	-234.614089	438.323923	206.695074	-295.920465	400.010785	231.046430	-199.892153	1022.200088	 90.628770	-303.558827	1254.506589	123.155443	-311.573838	1214.097191	 49.166654	-385.518463	928.464768	1553.230993	-489.462717	1011.890943	1528.114399	-182.322977	1034.609054	1498.646422	-319.949332	909.679217	1564.791351	-325.192520	926.614480	1435.029030	-91.462226	976.825181	1376.373619	-76.636765	927.653511	1300.881292	-17.136043	907.458472	1238.562034	 14.580665	878.480714	1213.810419	-67.411511	800.662156	1498.960191	-510.126187	795.123644	1420.818775	-546.164199	701.437010	1387.716782	-541.758877	659.410244	1328.283325	-552.260120	667.878226	1305.044578	-465.277865	1000.782962	1200.203884	-29.039124	1109.020792	1203.085567	-173.462653	1117.262104	1149.196179	-130.015542	709.052774	1262.910956	-567.068249	891.430890	1217.951336	-532.403086	859.070344	1160.646068	-561.679501	985.520290	1061.427266	-453.608517	
